<?xml version="1.0" encoding="UTF-8"?>
<!DOCTYPE svg PUBLIC "-//W3C//DTD SVG 1.1//EN" "http://www.w3.org/Graphics/SVG/1.1/DTD/svg11.dtd">
<svg xmlns="http://www.w3.org/2000/svg" version="1.1" width="632px" height="378px" style="shape-rendering:geometricPrecision; text-rendering:geometricPrecision; image-rendering:optimizeQuality; fill-rule:evenodd; clip-rule:evenodd" xmlns:xlink="http://www.w3.org/1999/xlink">
<g><path style="opacity:0.502" fill="#333334" d="M 490.5,23.5 C 431.542,22.5079 372.542,22.1745 313.5,22.5C 313.5,22.1667 313.5,21.8333 313.5,21.5C 371.613,20.5809 429.946,20.4143 488.5,21C 489.381,21.7083 490.047,22.5416 490.5,23.5 Z"/></g>
<g><path style="opacity:0.983" fill="#040202" d="M 313.5,22.5 C 372.542,22.1745 431.542,22.5079 490.5,23.5C 490.833,23.5 491.167,23.5 491.5,23.5C 493.43,27.1002 496.097,30.1002 499.5,32.5C 499.5,68.8333 499.5,105.167 499.5,141.5C 467.833,141.5 436.167,141.5 404.5,141.5C 403.167,140.833 402.167,139.833 401.5,138.5C 398.167,134.5 394.5,130.833 390.5,127.5C 390.5,126.5 390.5,125.5 390.5,124.5C 391.797,119.934 391.797,115.267 390.5,110.5C 388.527,109.837 386.361,109.504 384,109.5C 381.375,109.581 379.041,110.248 377,111.5C 376.174,123.341 376.341,135.007 377.5,146.5C 377.5,146.833 377.5,147.167 377.5,147.5C 392.995,148.331 408.661,148.831 424.5,149C 425.471,150.481 426.804,151.315 428.5,151.5C 430.833,153.167 432.833,155.167 434.5,157.5C 434.66,159.153 435.326,160.486 436.5,161.5C 436.5,185.833 436.5,210.167 436.5,234.5C 417.83,234.333 399.164,234.5 380.5,235C 379.944,235.383 379.611,235.883 379.5,236.5C 378.833,236.5 378.167,236.5 377.5,236.5C 376.505,248.989 376.171,261.656 376.5,274.5C 381.363,274.819 386.03,274.486 390.5,273.5C 391.434,272.432 391.768,271.099 391.5,269.5C 392.493,260.682 392.827,251.682 392.5,242.5C 407.343,242.829 422.01,242.496 436.5,241.5C 442.5,242.833 448.5,242.833 454.5,241.5C 466.322,242.495 478.322,242.828 490.5,242.5C 493.102,244.759 495.769,247.093 498.5,249.5C 499.5,286.494 499.833,323.494 499.5,360.5C 411.5,360.5 323.5,360.5 235.5,360.5C 234.115,358.117 232.115,356.45 229.5,355.5C 228.5,355.167 227.833,354.5 227.5,353.5C 226.833,352.5 226.167,351.5 225.5,350.5C 225.173,345.456 225.506,340.456 226.5,335.5C 227.086,335.709 227.586,336.043 228,336.5C 227.567,340.821 229.067,344.154 232.5,346.5C 233.522,346.145 234.189,345.478 234.5,344.5C 242.352,344.825 250.018,344.492 257.5,343.5C 258.5,344.833 259.5,344.833 260.5,343.5C 309.833,344.833 359.167,344.833 408.5,343.5C 433.5,343.5 458.5,343.5 483.5,343.5C 483.5,311.5 483.5,279.5 483.5,247.5C 454.5,247.5 425.5,247.5 396.5,247.5C 396.5,257.833 396.5,268.167 396.5,278.5C 384.167,278.5 371.833,278.5 359.5,278.5C 359.5,269.167 359.5,259.833 359.5,250.5C 364.978,239.702 366.978,228.702 365.5,217.5C 383.167,217.5 400.833,217.5 418.5,217.5C 418.5,196.167 418.5,174.833 418.5,153.5C 399.007,152.503 379.34,152.17 359.5,152.5C 359.5,132.5 359.5,112.5 359.5,92.5C 371.5,92.5 383.5,92.5 395.5,92.5C 395.173,102.681 395.506,112.681 396.5,122.5C 425.5,122.5 454.5,122.5 483.5,122.5C 483.832,90.6623 483.498,58.9956 482.5,27.5C 398.5,26.1667 314.5,26.1667 230.5,27.5C 229.167,48.8333 229.167,70.1667 230.5,91.5C 239.986,92.4938 249.652,92.8271 259.5,92.5C 259.5,100.833 259.5,109.167 259.5,117.5C 259.167,117.5 258.833,117.5 258.5,117.5C 257.791,116.596 256.791,116.263 255.5,116.5C 255.784,114.585 255.451,112.919 254.5,111.5C 249.015,110.673 243.348,110.173 237.5,110C 233.631,105.963 229.631,102.13 225.5,98.5C 225.5,73.1667 225.5,47.8333 225.5,22.5C 254.833,22.5 284.167,22.5 313.5,22.5 Z"/></g>
<g><path style="opacity:0.247" fill="#828283" d="M 491.5,23.5 C 494.903,25.8998 497.57,28.8998 499.5,32.5C 496.097,30.1002 493.43,27.1002 491.5,23.5 Z"/></g>
<g><path style="opacity:1" fill="#9d2a33" d="M 482.5,27.5 C 482.5,58.8333 482.5,90.1667 482.5,121.5C 454.167,121.5 425.833,121.5 397.5,121.5C 397.5,111.167 397.5,100.833 397.5,90.5C 384.323,90.1712 371.323,90.5045 358.5,91.5C 357.503,112.327 357.169,133.327 357.5,154.5C 377.5,154.5 397.5,154.5 417.5,154.5C 417.5,175.167 417.5,195.833 417.5,216.5C 400.167,216.5 382.833,216.5 365.5,216.5C 361.059,201.569 352.559,189.569 340,180.5C 339.131,178.419 338.631,176.253 338.5,174C 339.597,170.075 340.931,166.242 342.5,162.5C 340.363,158.358 338.697,154.024 337.5,149.5C 343.292,125.933 333.958,113.267 309.5,111.5C 306.833,111.667 304.167,111.833 301.5,112C 297.019,113.954 292.352,115.287 287.5,116C 284.977,116.518 282.977,117.852 281.5,120C 274.226,120.979 267.226,120.146 260.5,117.5C 260.826,108.651 260.493,99.9839 259.5,91.5C 250.014,90.5062 240.348,90.1729 230.5,90.5C 230.5,69.5 230.5,48.5 230.5,27.5C 314.5,26.1667 398.5,26.1667 482.5,27.5 Z"/></g>
<g><path style="opacity:0.012" fill="#9a989a" d="M 224.5,21.5 C 224.5,47.1667 224.5,72.8333 224.5,98.5C 223.883,98.3893 223.383,98.056 223,97.5C 222.595,72.2688 223.095,46.9355 224.5,21.5 Z"/></g>
<g><path style="opacity:0.322" fill="#252425" d="M 313.5,21.5 C 313.5,21.8333 313.5,22.1667 313.5,22.5C 284.167,22.5 254.833,22.5 225.5,22.5C 225.5,47.8333 225.5,73.1667 225.5,98.5C 225.167,98.5 224.833,98.5 224.5,98.5C 224.5,72.8333 224.5,47.1667 224.5,21.5C 254.028,20.9501 283.694,20.9501 313.5,21.5 Z"/></g>
<g><path style="opacity:0.004" fill="#f9f9f9" d="M 152.5,84.5 C 152.897,83.475 153.563,83.3083 154.5,84C 153.906,84.4643 153.239,84.631 152.5,84.5 Z"/></g>
<g><path style="opacity:1" fill="#681d24" d="M 230.5,27.5 C 230.5,48.5 230.5,69.5 230.5,90.5C 240.348,90.1729 250.014,90.5062 259.5,91.5C 249.833,91.5 240.167,91.5 230.5,91.5C 229.167,70.1667 229.167,48.8333 230.5,27.5 Z"/></g>
<g><path style="opacity:1" fill="#401217" d="M 230.5,91.5 C 240.167,91.5 249.833,91.5 259.5,91.5C 260.493,99.9839 260.826,108.651 260.5,117.5C 260.167,117.5 259.833,117.5 259.5,117.5C 259.5,109.167 259.5,100.833 259.5,92.5C 249.652,92.8271 239.986,92.4938 230.5,91.5 Z"/></g>
<g><path style="opacity:0.349" fill="#7e7c7d" d="M 224.5,98.5 C 224.833,98.5 225.167,98.5 225.5,98.5C 229.631,102.13 233.631,105.963 237.5,110C 243.348,110.173 249.015,110.673 254.5,111.5C 254.768,113.099 254.434,114.432 253.5,115.5C 253.67,114.178 253.337,113.011 252.5,112C 247.167,111.667 241.833,111.333 236.5,111C 232.296,106.964 228.296,102.798 224.5,98.5 Z"/></g>
<g><path style="opacity:0.225" fill="#777576" d="M 378.5,111.5 C 382.298,110.517 386.298,110.183 390.5,110.5C 391.797,115.267 391.797,119.934 390.5,124.5C 390.666,120.486 390.499,116.486 390,112.5C 386.27,111.54 382.437,111.207 378.5,111.5 Z"/></g>
<g><path style="opacity:1" fill="#681c23" d="M 482.5,27.5 C 483.498,58.9956 483.832,90.6623 483.5,122.5C 454.5,122.5 425.5,122.5 396.5,122.5C 396.5,112.167 396.5,101.833 396.5,91.5C 383.833,91.5 371.167,91.5 358.5,91.5C 371.323,90.5045 384.323,90.1712 397.5,90.5C 397.5,100.833 397.5,111.167 397.5,121.5C 425.833,121.5 454.167,121.5 482.5,121.5C 482.5,90.1667 482.5,58.8333 482.5,27.5 Z"/></g>
<g><path style="opacity:1" fill="#181616" d="M 253.5,115.5 C 254.434,114.432 254.768,113.099 254.5,111.5C 255.451,112.919 255.784,114.585 255.5,116.5C 256.791,116.263 257.791,116.596 258.5,117.5C 257.504,117.414 256.671,117.748 256,118.5C 255.667,122.167 255.333,125.833 255,129.5C 249.532,134.153 243.366,137.653 236.5,140C 226.282,146.931 218.782,156.098 214,167.5C 217.299,147.199 229.132,135.032 249.5,131C 252.886,127.627 253.386,123.794 251,119.5C 247.867,116.133 244.534,115.799 241,118.5C 240.84,122.287 240.174,125.954 239,129.5C 232.761,134.37 226.261,138.87 219.5,143C 215.712,147.406 212.545,152.239 210,157.5C 209.628,151.891 211.294,146.891 215,142.5C 220.095,136.737 226.261,132.571 233.5,130C 238.31,126.645 238.644,122.979 234.5,119C 230.638,116.503 227.638,117.169 225.5,121C 227.53,125.834 226.53,129.834 222.5,133C 216.175,134.826 211.509,138.659 208.5,144.5C 208.167,144.167 207.833,143.833 207.5,143.5C 208.194,140.912 209.36,138.579 211,136.5C 214.705,133.821 218.371,131.155 222,128.5C 222.258,119.607 218.091,116.607 209.5,119.5C 210.605,120.892 211.939,122.059 213.5,123C 212.333,123.167 211.167,123.333 210,123.5C 200.117,118.978 189.951,115.145 179.5,112C 163.127,110.269 151.293,116.769 144,131.5C 140.704,141.486 140.704,151.486 144,161.5C 144.786,166.634 147.619,169.134 152.5,169C 146.746,163.866 144.413,157.366 145.5,149.5C 146.44,125.362 158.106,117.862 180.5,127C 184.507,130.674 188.174,134.674 191.5,139C 195.257,141.487 199.257,142.153 203.5,141C 199.434,143.958 195.101,144.292 190.5,142C 186.618,138.611 182.618,135.444 178.5,132.5C 176.234,132.931 174.734,134.264 174,136.5C 173.502,139.482 173.335,142.482 173.5,145.5C 176.334,144.442 179.001,143.276 181.5,142C 170.179,160.933 164.012,181.433 163,203.5C 164.471,199.21 165.971,194.877 167.5,190.5C 167.833,190.667 168.167,190.833 168.5,191C 169.764,196.116 169.764,201.283 168.5,206.5C 168.556,207.737 169.056,208.737 170,209.5C 171.006,197.132 172.339,184.799 174,172.5C 174.375,170 175.208,167.667 176.5,165.5C 177.167,164.167 177.833,164.167 178.5,165.5C 172.645,196.43 174.812,226.763 185,256.5C 186.746,260.327 188.746,263.993 191,267.5C 194.333,269.247 197.167,271.58 199.5,274.5C 208.857,279.364 218.857,280.864 229.5,279C 235.587,276.94 241.587,277.274 247.5,280C 256.644,281.919 264.977,280.252 272.5,275C 280.079,273.123 286.579,269.289 292,263.5C 299.271,249.958 306.271,236.292 313,222.5C 314.907,218.99 317.74,217.824 321.5,219C 322.464,221.647 321.964,224.147 320,226.5C 310.505,239.488 301.505,252.821 293,266.5C 289.688,268.645 286.854,271.312 284.5,274.5C 288.76,276.202 292.427,275.369 295.5,272C 300.605,269.404 304.939,270.237 308.5,274.5C 311.392,270.85 314.392,270.683 317.5,274C 322.833,274.667 328.167,274.667 333.5,274C 335.373,271.791 337.54,269.958 340,268.5C 351.221,252.941 356.555,235.607 356,216.5C 354.938,211.564 353.271,206.898 351,202.5C 346.972,200.27 342.638,199.27 338,199.5C 321.868,196.895 310.534,202.895 304,217.5C 299.818,228.564 295.485,239.564 291,250.5C 281.392,266.169 267.558,274.002 249.5,274C 245.335,272.517 243.835,269.684 245,265.5C 249.972,261.4 254.806,261.567 259.5,266C 263.452,266.912 267.119,266.245 270.5,264C 277.758,258.744 283.591,252.244 288,244.5C 292.326,235.535 296.66,226.535 301,217.5C 304.606,211.293 308.939,205.627 314,200.5C 314.318,196.805 314.818,193.138 315.5,189.5C 315.219,187.222 313.885,186.055 311.5,186C 305.443,184.838 299.777,185.838 294.5,189C 290.948,192.219 287.115,195.052 283,197.5C 282.833,197.167 282.667,196.833 282.5,196.5C 287.721,191.125 293.888,187.125 301,184.5C 302.268,178.636 304.101,172.969 306.5,167.5C 299.749,166.295 293.915,167.962 289,172.5C 286.385,176.783 283.385,180.783 280,184.5C 278.47,188.09 277.136,191.757 276,195.5C 271.299,199.866 266.966,204.533 263,209.5C 261.263,215.433 259.096,221.1 256.5,226.5C 257.424,218.805 259.591,211.472 263,204.5C 265.732,201.104 269.065,198.437 273,196.5C 275.395,190.648 277.395,184.648 279,178.5C 281.312,175.354 283.812,172.354 286.5,169.5C 286.167,169.167 285.833,168.833 285.5,168.5C 276.231,172.043 269.064,178.043 264,186.5C 255.831,201.493 249.331,217.16 244.5,233.5C 247.11,212.676 254.11,193.343 265.5,175.5C 265.267,174.068 264.6,173.568 263.5,174C 261.856,177.937 260.023,181.77 258,185.5C 257.107,186.711 256.274,186.711 255.5,185.5C 258.029,181.451 259.696,177.118 260.5,172.5C 259.5,172.5 258.5,172.5 257.5,172.5C 257.625,184.095 251.958,189.261 240.5,188C 238.126,185.961 236.126,183.628 234.5,181C 231.785,180.122 229.451,178.622 227.5,176.5C 224.518,179.783 222.018,183.449 220,187.5C 219,188.167 218,188.833 217,189.5C 222.673,179.244 228.006,168.577 233,157.5C 237.034,153.891 241.201,150.391 245.5,147C 251.204,145.685 256.204,147.018 260.5,151C 265.833,151.333 271.167,151.667 276.5,152C 280.981,154.31 282.314,157.81 280.5,162.5C 278.99,160.491 277.323,158.658 275.5,157C 269.833,156.667 264.167,156.333 258.5,156C 249.933,150.306 242.766,151.806 237,160.5C 236.409,161.483 236.743,162.15 238,162.5C 244.928,161.085 251.428,162.252 257.5,166C 264.5,166.667 271.5,166.667 278.5,166C 285.387,164.466 288.22,160.299 287,153.5C 285.786,151.951 284.286,150.785 282.5,150C 271.827,149.774 261.827,147.108 252.5,142C 250.167,141.333 247.833,141.333 245.5,142C 242.333,144.5 239.167,147 236,149.5C 231.169,155.826 226.835,162.492 223,169.5C 220.609,172.597 217.776,174.763 214.5,176C 220.467,168.576 225.3,160.409 229,151.5C 235.284,142.699 243.784,138.033 254.5,137.5C 262.549,140.85 270.882,143.183 279.5,144.5C 279.617,142.516 278.95,140.85 277.5,139.5C 274.025,137.733 270.525,136.067 267,134.5C 264.742,131.714 265.242,131.048 268.5,132.5C 269.583,131.635 269.749,130.635 269,129.5C 267.006,124.481 263.839,120.481 259.5,117.5C 259.833,117.5 260.167,117.5 260.5,117.5C 267.226,120.146 274.226,120.979 281.5,120C 282.977,117.852 284.977,116.518 287.5,116C 292.352,115.287 297.019,113.954 301.5,112C 304.167,111.833 306.833,111.667 309.5,111.5C 333.958,113.267 343.292,125.933 337.5,149.5C 338.697,154.024 340.363,158.358 342.5,162.5C 340.931,166.242 339.597,170.075 338.5,174C 338.631,176.253 339.131,178.419 340,180.5C 352.559,189.569 361.059,201.569 365.5,216.5C 365.5,216.833 365.5,217.167 365.5,217.5C 366.978,228.702 364.978,239.702 359.5,250.5C 358.599,251.29 357.932,252.29 357.5,253.5C 355.761,262.6 353.594,271.6 351,280.5C 346.63,286.955 340.964,288.288 334,284.5C 325.848,290.004 317.348,295.171 308.5,300C 305.833,302.667 303.167,305.333 300.5,308C 296.793,309.402 293.126,310.902 289.5,312.5C 288.571,313.689 288.238,315.022 288.5,316.5C 284.776,316.05 282.609,317.717 282,321.5C 281.749,326.501 281.916,331.501 282.5,336.5C 278.979,336.17 275.979,334.67 273.5,332C 264.826,329.647 261.16,332.813 262.5,341.5C 261.833,341.5 261.5,341.833 261.5,342.5C 260.833,342.5 260.5,342.833 260.5,343.5C 259.5,344.833 258.5,344.833 257.5,343.5C 257.167,343.5 256.833,343.5 256.5,343.5C 255.752,341.668 254.752,340.001 253.5,338.5C 254.5,337.833 255.5,337.167 256.5,336.5C 255.96,333.135 255.294,329.802 254.5,326.5C 253.602,325.842 252.602,325.176 251.5,324.5C 252.5,323.667 253.5,322.833 254.5,322C 251.82,321.665 249.487,322.499 247.5,324.5C 246.893,324.376 246.56,324.043 246.5,323.5C 247.625,321.871 248.959,320.371 250.5,319C 212.095,318.814 184.762,301.48 168.5,267C 166.672,268.47 165.005,270.47 163.5,273C 161.782,273.346 160.115,273.846 158.5,274.5C 157.845,278.205 159.178,281.205 162.5,283.5C 167.368,279.287 171.702,279.621 175.5,284.5C 174.883,284.611 174.383,284.944 174,285.5C 172.395,282.726 170.228,282.06 167.5,283.5C 170.729,284.875 171.896,287.208 171,290.5C 170.722,289.584 170.222,288.918 169.5,288.5C 168.749,287.427 167.749,287.26 166.5,288C 164.382,289.049 162.716,290.549 161.5,292.5C 158.107,290.974 156.774,288.307 157.5,284.5C 156.5,284.5 155.5,284.5 154.5,284.5C 152.356,281.878 151.023,278.878 150.5,275.5C 146.154,275.666 141.821,275.499 137.5,275C 134.997,273.451 134.997,271.784 137.5,270C 139.833,269 142.167,268 144.5,267C 145.022,266.439 145.355,265.772 145.5,265C 143.404,259.353 142.404,253.519 142.5,247.5C 127.649,246.616 126.982,243.616 140.5,238.5C 142.797,232.207 142.964,225.874 141,219.5C 126.788,214.239 127.288,210.906 142.5,209.5C 145.397,204.91 146.564,199.91 146,194.5C 143.417,193.126 140.917,191.626 138.5,190C 136.668,188.511 135.835,186.678 136,184.5C 140.76,183.931 145.593,183.765 150.5,184C 152.097,181.473 153.43,178.806 154.5,176C 154.095,175.055 153.428,174.388 152.5,174C 142.261,172.758 136.761,166.925 136,156.5C 131.886,139.847 136.052,125.681 148.5,114C 166.191,102.026 183.191,102.693 199.5,116C 200.5,116.167 201.5,116.333 202.5,116.5C 208.031,114.268 213.698,113.935 219.5,115.5C 223.213,115.091 226.88,114.424 230.5,113.5C 232.383,114.024 234.216,114.691 236,115.5C 238.567,114.422 241.233,113.755 244,113.5C 247.141,114.322 250.307,114.989 253.5,115.5 Z"/></g>
<g><path style="opacity:1" fill="#9ba1a9" d="M 301.5,114.5 C 314.135,113.736 324.635,118.07 333,127.5C 333.926,132.317 334.76,137.151 335.5,142C 335.219,144.292 334.552,146.458 333.5,148.5C 332.672,144.204 332.172,139.871 332,135.5C 331.535,134.069 330.701,132.903 329.5,132C 325.393,131.744 321.393,132.078 317.5,133C 313.89,131.056 310.557,128.723 307.5,126C 304.289,124.847 300.956,124.18 297.5,124C 294.913,122.475 294.08,120.308 295,117.5C 297.166,116.269 299.333,115.269 301.5,114.5 Z"/></g>
<g><path style="opacity:1" fill="#9aa0a8" d="M 258.5,117.5 C 258.833,117.5 259.167,117.5 259.5,117.5C 263.839,120.481 267.006,124.481 269,129.5C 269.749,130.635 269.583,131.635 268.5,132.5C 265.242,131.048 264.742,131.714 267,134.5C 270.525,136.067 274.025,137.733 277.5,139.5C 278.95,140.85 279.617,142.516 279.5,144.5C 270.882,143.183 262.549,140.85 254.5,137.5C 243.784,138.033 235.284,142.699 229,151.5C 225.3,160.409 220.467,168.576 214.5,176C 217.776,174.763 220.609,172.597 223,169.5C 226.835,162.492 231.169,155.826 236,149.5C 239.167,147 242.333,144.5 245.5,142C 247.833,141.333 250.167,141.333 252.5,142C 261.827,147.108 271.827,149.774 282.5,150C 284.286,150.785 285.786,151.951 287,153.5C 288.22,160.299 285.387,164.466 278.5,166C 271.5,166.667 264.5,166.667 257.5,166C 251.428,162.252 244.928,161.085 238,162.5C 236.743,162.15 236.409,161.483 237,160.5C 242.766,151.806 249.933,150.306 258.5,156C 264.167,156.333 269.833,156.667 275.5,157C 277.323,158.658 278.99,160.491 280.5,162.5C 282.314,157.81 280.981,154.31 276.5,152C 271.167,151.667 265.833,151.333 260.5,151C 256.204,147.018 251.204,145.685 245.5,147C 241.201,150.391 237.034,153.891 233,157.5C 228.006,168.577 222.673,179.244 217,189.5C 218,188.833 219,188.167 220,187.5C 222.018,183.449 224.518,179.783 227.5,176.5C 229.451,178.622 231.785,180.122 234.5,181C 236.126,183.628 238.126,185.961 240.5,188C 251.958,189.261 257.625,184.095 257.5,172.5C 258.5,172.5 259.5,172.5 260.5,172.5C 259.696,177.118 258.029,181.451 255.5,185.5C 256.274,186.711 257.107,186.711 258,185.5C 260.023,181.77 261.856,177.937 263.5,174C 264.6,173.568 265.267,174.068 265.5,175.5C 254.11,193.343 247.11,212.676 244.5,233.5C 249.331,217.16 255.831,201.493 264,186.5C 269.064,178.043 276.231,172.043 285.5,168.5C 285.833,168.833 286.167,169.167 286.5,169.5C 283.812,172.354 281.312,175.354 279,178.5C 277.395,184.648 275.395,190.648 273,196.5C 269.065,198.437 265.732,201.104 263,204.5C 259.591,211.472 257.424,218.805 256.5,226.5C 259.096,221.1 261.263,215.433 263,209.5C 266.966,204.533 271.299,199.866 276,195.5C 277.136,191.757 278.47,188.09 280,184.5C 283.385,180.783 286.385,176.783 289,172.5C 293.915,167.962 299.749,166.295 306.5,167.5C 304.101,172.969 302.268,178.636 301,184.5C 293.888,187.125 287.721,191.125 282.5,196.5C 282.667,196.833 282.833,197.167 283,197.5C 287.115,195.052 290.948,192.219 294.5,189C 299.777,185.838 305.443,184.838 311.5,186C 313.885,186.055 315.219,187.222 315.5,189.5C 314.818,193.138 314.318,196.805 314,200.5C 308.939,205.627 304.606,211.293 301,217.5C 296.66,226.535 292.326,235.535 288,244.5C 283.591,252.244 277.758,258.744 270.5,264C 267.119,266.245 263.452,266.912 259.5,266C 254.806,261.567 249.972,261.4 245,265.5C 243.835,269.684 245.335,272.517 249.5,274C 267.558,274.002 281.392,266.169 291,250.5C 295.485,239.564 299.818,228.564 304,217.5C 310.534,202.895 321.868,196.895 338,199.5C 342.638,199.27 346.972,200.27 351,202.5C 353.271,206.898 354.938,211.564 356,216.5C 356.555,235.607 351.221,252.941 340,268.5C 337.54,269.958 335.373,271.791 333.5,274C 328.167,274.667 322.833,274.667 317.5,274C 314.392,270.683 311.392,270.85 308.5,274.5C 304.939,270.237 300.605,269.404 295.5,272C 292.427,275.369 288.76,276.202 284.5,274.5C 286.854,271.312 289.688,268.645 293,266.5C 301.505,252.821 310.505,239.488 320,226.5C 321.964,224.147 322.464,221.647 321.5,219C 317.74,217.824 314.907,218.99 313,222.5C 306.271,236.292 299.271,249.958 292,263.5C 286.579,269.289 280.079,273.123 272.5,275C 264.977,280.252 256.644,281.919 247.5,280C 241.587,277.274 235.587,276.94 229.5,279C 218.857,280.864 208.857,279.364 199.5,274.5C 197.167,271.58 194.333,269.247 191,267.5C 188.746,263.993 186.746,260.327 185,256.5C 174.812,226.763 172.645,196.43 178.5,165.5C 177.833,164.167 177.167,164.167 176.5,165.5C 175.208,167.667 174.375,170 174,172.5C 172.339,184.799 171.006,197.132 170,209.5C 169.056,208.737 168.556,207.737 168.5,206.5C 169.764,201.283 169.764,196.116 168.5,191C 168.167,190.833 167.833,190.667 167.5,190.5C 165.971,194.877 164.471,199.21 163,203.5C 164.012,181.433 170.179,160.933 181.5,142C 179.001,143.276 176.334,144.442 173.5,145.5C 173.335,142.482 173.502,139.482 174,136.5C 174.734,134.264 176.234,132.931 178.5,132.5C 182.618,135.444 186.618,138.611 190.5,142C 195.101,144.292 199.434,143.958 203.5,141C 199.257,142.153 195.257,141.487 191.5,139C 188.174,134.674 184.507,130.674 180.5,127C 158.106,117.862 146.44,125.362 145.5,149.5C 144.413,157.366 146.746,163.866 152.5,169C 147.619,169.134 144.786,166.634 144,161.5C 140.704,151.486 140.704,141.486 144,131.5C 151.293,116.769 163.127,110.269 179.5,112C 189.951,115.145 200.117,118.978 210,123.5C 211.167,123.333 212.333,123.167 213.5,123C 211.939,122.059 210.605,120.892 209.5,119.5C 218.091,116.607 222.258,119.607 222,128.5C 218.371,131.155 214.705,133.821 211,136.5C 209.36,138.579 208.194,140.912 207.5,143.5C 207.833,143.833 208.167,144.167 208.5,144.5C 211.509,138.659 216.175,134.826 222.5,133C 226.53,129.834 227.53,125.834 225.5,121C 227.638,117.169 230.638,116.503 234.5,119C 238.644,122.979 238.31,126.645 233.5,130C 226.261,132.571 220.095,136.737 215,142.5C 211.294,146.891 209.628,151.891 210,157.5C 212.545,152.239 215.712,147.406 219.5,143C 226.261,138.87 232.761,134.37 239,129.5C 240.174,125.954 240.84,122.287 241,118.5C 244.534,115.799 247.867,116.133 251,119.5C 253.386,123.794 252.886,127.627 249.5,131C 229.132,135.032 217.299,147.199 214,167.5C 218.782,156.098 226.282,146.931 236.5,140C 243.366,137.653 249.532,134.153 255,129.5C 255.333,125.833 255.667,122.167 256,118.5C 256.671,117.748 257.504,117.414 258.5,117.5 Z"/></g>
<g><path style="opacity:0.02" fill="#a1a0a0" d="M 390.5,127.5 C 394.5,130.833 398.167,134.5 401.5,138.5C 396.833,135.833 393.167,132.167 390.5,127.5 Z"/></g>
<g><path style="opacity:1" fill="#331013" d="M 358.5,91.5 C 371.167,91.5 383.833,91.5 396.5,91.5C 396.5,101.833 396.5,112.167 396.5,122.5C 395.506,112.681 395.173,102.681 395.5,92.5C 383.5,92.5 371.5,92.5 359.5,92.5C 359.5,112.5 359.5,132.5 359.5,152.5C 379.34,152.17 399.007,152.503 418.5,153.5C 398.5,153.5 378.5,153.5 358.5,153.5C 358.5,132.833 358.5,112.167 358.5,91.5 Z"/></g>
<g><path style="opacity:0.371" fill="#3e3d3e" d="M 390.5,110.5 C 386.298,110.183 382.298,110.517 378.5,111.5C 377.982,122.503 377.649,133.503 377.5,144.5C 377.5,145.167 377.5,145.833 377.5,146.5C 376.341,135.007 376.174,123.341 377,111.5C 379.041,110.248 381.375,109.581 384,109.5C 386.361,109.504 388.527,109.837 390.5,110.5 Z"/></g>
<g><path style="opacity:1" fill="#9aa0a8" d="M 268.5,121.5 C 269.922,121.709 271.255,122.209 272.5,123C 279.22,131.607 285.053,140.774 290,150.5C 290.944,149.737 291.444,148.737 291.5,147.5C 288.377,138.585 283.71,130.585 277.5,123.5C 278.723,122.386 280.056,122.219 281.5,123C 288.48,130.802 293.48,139.635 296.5,149.5C 297.745,145.786 297.579,142.12 296,138.5C 293.499,133.494 290.499,128.827 287,124.5C 286.517,123.552 286.351,122.552 286.5,121.5C 290.326,121.797 293.326,123.63 295.5,127C 300.981,126.37 305.314,128.204 308.5,132.5C 307.975,133.192 307.308,133.692 306.5,134C 307.833,135.333 309.167,136.667 310.5,138C 316.392,140.259 321.059,143.926 324.5,149C 320.849,153.114 316.682,153.614 312,150.5C 309.63,150.6 307.797,151.6 306.5,153.5C 307,153.833 307.5,154.167 308,154.5C 310.099,153.713 312.266,153.38 314.5,153.5C 314.557,158.199 316.224,158.699 319.5,155C 325.044,152.723 330.377,153.056 335.5,156C 338.913,160.071 339.413,164.571 337,169.5C 336.586,169.957 336.086,170.291 335.5,170.5C 330.394,168.351 329.727,165.517 333.5,162C 327.138,164.236 320.472,165.403 313.5,165.5C 305.918,164.118 298.251,163.451 290.5,163.5C 291.679,156.529 289.512,150.862 284,146.5C 283.158,143.311 281.825,140.311 280,137.5C 277.532,136.896 275.532,135.562 274,133.5C 272.412,129.328 270.579,125.328 268.5,121.5 Z"/></g>
<g><path style="opacity:1" fill="#1b1b1b" d="M 299.5,137.5 C 302.358,137.595 304.691,138.762 306.5,141C 308.473,141.495 310.473,141.662 312.5,141.5C 312.22,145.225 310.22,146.392 306.5,145C 303.261,143.264 300.927,140.764 299.5,137.5 Z"/></g>
<g><path style="opacity:0.125" fill="#6c6a6b" d="M 404.5,141.5 C 436.167,141.5 467.833,141.5 499.5,141.5C 486.141,142.192 472.641,142.859 459,143.5C 440.693,142.852 422.527,142.185 404.5,141.5 Z"/></g>
<g><path style="opacity:0.031" fill="#a1a0a3" d="M 377.5,144.5 C 378.289,144.783 378.956,145.283 379.5,146C 394.339,146.169 409.006,146.669 423.5,147.5C 408.167,147.5 392.833,147.5 377.5,147.5C 377.5,147.167 377.5,146.833 377.5,146.5C 377.5,145.833 377.5,145.167 377.5,144.5 Z"/></g>
<g><path style="opacity:0.333" fill="#313132" d="M 377.5,147.5 C 392.833,147.5 408.167,147.5 423.5,147.5C 425.749,148.08 427.415,149.413 428.5,151.5C 426.804,151.315 425.471,150.481 424.5,149C 408.661,148.831 392.995,148.331 377.5,147.5 Z"/></g>
<g><path style="opacity:1" fill="#782229" d="M 358.5,91.5 C 358.5,112.167 358.5,132.833 358.5,153.5C 378.5,153.5 398.5,153.5 418.5,153.5C 418.5,174.833 418.5,196.167 418.5,217.5C 400.833,217.5 383.167,217.5 365.5,217.5C 365.5,217.167 365.5,216.833 365.5,216.5C 382.833,216.5 400.167,216.5 417.5,216.5C 417.5,195.833 417.5,175.167 417.5,154.5C 397.5,154.5 377.5,154.5 357.5,154.5C 357.169,133.327 357.503,112.327 358.5,91.5 Z"/></g>
<g><path style="opacity:0.176" fill="#646464" d="M 434.5,157.5 C 437.124,158.076 437.791,159.41 436.5,161.5C 435.326,160.486 434.66,159.153 434.5,157.5 Z"/></g>
<g><path style="opacity:1" fill="#ebebeb" d="M 240.5,166.5 C 242.288,166.215 243.955,166.548 245.5,167.5C 239.228,170.036 237.395,174.369 240,180.5C 243.418,184.367 246.751,184.367 250,180.5C 250.127,179.223 249.627,178.057 248.5,177C 250.459,174.864 251.793,172.364 252.5,169.5C 255.334,171.441 256.168,174.107 255,177.5C 251.948,185.026 246.615,187.359 239,184.5C 235.23,178.02 235.73,172.02 240.5,166.5 Z"/></g>
<g><path style="opacity:1" fill="#9a9fa7" d="M 318.5,178.5 C 319.5,178.5 320.5,178.5 321.5,178.5C 321.762,179.978 321.429,181.311 320.5,182.5C 318.889,181.68 318.222,180.346 318.5,178.5 Z"/></g>
<g><path style="opacity:1" fill="#979da4" d="M 329.5,178.5 C 330.5,178.5 331.5,178.5 332.5,178.5C 333.244,181.95 331.91,183.616 328.5,183.5C 328.366,181.708 328.699,180.042 329.5,178.5 Z"/></g>
<g><path style="opacity:1" fill="#c22a1e" d="M 161.5,173.5 C 162.497,173.47 163.164,173.97 163.5,175C 162.548,179.312 161.215,183.479 159.5,187.5C 158.119,187 157.453,186 157.5,184.5C 158.839,180.815 160.172,177.149 161.5,173.5 Z"/></g>
<g><path style="opacity:1" fill="#363839" d="M 305.5,187.5 C 307.337,187.639 307.67,188.306 306.5,189.5C 305.702,189.043 305.369,188.376 305.5,187.5 Z"/></g>
<g><path style="opacity:1" fill="#989ea5" d="M 333.5,189.5 C 333.874,187.05 335.374,186.05 338,186.5C 340.253,186.631 342.419,187.131 344.5,188C 345.832,191.526 344.499,193.359 340.5,193.5C 337.335,193.423 335.001,192.09 333.5,189.5 Z"/></g>
<g><path style="opacity:1" fill="#e4e4e4" d="M 146.5,187.5 C 149.305,187.818 151.639,188.985 153.5,191C 153.167,191.5 152.833,192 152.5,192.5C 149.825,191.479 147.825,189.813 146.5,187.5 Z"/></g>
<g><path style="opacity:1" fill="#3a3b3d" d="M 300.5,188.5 C 302.337,188.639 302.67,189.306 301.5,190.5C 300.702,190.043 300.369,189.376 300.5,188.5 Z"/></g>
<g><path style="opacity:1" fill="#9ba1a9" d="M 319.5,187.5 C 322.187,187.336 324.854,187.503 327.5,188C 329.037,189.11 329.703,190.61 329.5,192.5C 326.482,192.665 323.482,192.498 320.5,192C 318.452,190.774 318.119,189.274 319.5,187.5 Z"/></g>
<g><path style="opacity:1" fill="#9c9a9b" d="M 333.5,189.5 C 333.361,191.337 332.694,191.67 331.5,190.5C 331.957,189.702 332.624,189.369 333.5,189.5 Z"/></g>
<g><path style="opacity:1" fill="#1c1a1b" d="M 250.5,190.5 C 253.113,191.095 253.113,191.929 250.5,193C 246.638,193.913 242.972,193.58 239.5,192C 241.476,191.812 243.476,191.979 245.5,192.5C 247.557,192.564 249.223,191.898 250.5,190.5 Z"/></g>
<g><path style="opacity:1" fill="#c32a1d" d="M 156.5,197.5 C 157.725,198.152 158.392,199.319 158.5,201C 157.837,204.473 157.504,207.973 157.5,211.5C 150.527,210.565 148.693,206.898 152,200.5C 153.409,199.219 154.909,198.219 156.5,197.5 Z"/></g>
<g><path style="opacity:1" fill="#1a1819" d="M 226.5,187.5 C 227.325,191.647 227.825,195.981 228,200.5C 229.334,204.104 231.834,205.271 235.5,204C 238.029,201.971 240.696,200.138 243.5,198.5C 243.833,198.833 244.167,199.167 244.5,199.5C 240.888,204.306 236.221,207.64 230.5,209.5C 226.538,208.035 224.204,205.202 223.5,201C 223.894,196.302 224.894,191.802 226.5,187.5 Z"/></g>
<g><path style="opacity:1" fill="#1b191a" d="M 333.5,204.5 C 339.141,205.31 344.807,206.144 350.5,207C 348.153,207.436 345.819,207.936 343.5,208.5C 338.26,205.653 333.26,205.987 328.5,209.5C 322.022,207.115 316.855,208.782 313,214.5C 311,217.167 309,219.833 307,222.5C 308.711,216.602 311.878,211.436 316.5,207C 320.57,205.191 324.736,205.025 329,206.5C 330.876,206.475 332.376,205.809 333.5,204.5 Z"/></g>
<g><path style="opacity:1" fill="#d9d8d8" d="M 144.5,214.5 C 146.035,213.212 147.701,213.212 149.5,214.5C 147.833,215.666 146.166,215.666 144.5,214.5 Z"/></g>
<g><path style="opacity:1" fill="#c72a1e" d="M 155.5,220.5 C 156.809,222.571 157.475,225.071 157.5,228C 157.167,230.5 156.833,233 156.5,235.5C 153.833,232.833 151.167,232.833 148.5,235.5C 147.343,232.216 147.176,228.882 148,225.5C 151.135,224.689 153.635,223.023 155.5,220.5 Z"/></g>
<g><path style="opacity:1" fill="#333134" d="M 256.5,226.5 C 256.496,228.842 255.663,230.842 254,232.5C 253.992,230.179 254.825,228.179 256.5,226.5 Z"/></g>
<g><path style="opacity:1" fill="#1d1e1e" d="M 349.5,217.5 C 350.778,223.713 350.611,230.046 349,236.5C 345.728,246.375 341.394,255.708 336,264.5C 339.234,254.137 342.901,243.804 347,233.5C 347.528,228.095 348.361,222.762 349.5,217.5 Z"/></g>
<g><path style="opacity:1" fill="#dddcdc" d="M 148.5,238.5 C 149.5,238.5 150.5,238.5 151.5,238.5C 151.5,239.833 151.5,241.167 151.5,242.5C 148.753,242.813 146.086,242.48 143.5,241.5C 145.145,240.304 146.811,239.304 148.5,238.5 Z"/></g>
<g><path style="opacity:1" fill="#1d1d1e" d="M 323.5,238.5 C 324.598,239.601 324.765,240.934 324,242.5C 320.874,250.787 315.707,257.454 308.5,262.5C 307.592,261.21 307.759,259.877 309,258.5C 314.565,252.373 319.398,245.706 323.5,238.5 Z"/></g>
<g><path style="opacity:0.149" fill="#6d6e70" d="M 436.5,241.5 C 422.01,242.496 407.343,242.829 392.5,242.5C 392.827,251.682 392.493,260.682 391.5,269.5C 391.826,260.983 391.493,252.65 390.5,244.5C 390.33,243.178 390.663,242.011 391.5,241C 406.574,240.184 421.574,240.351 436.5,241.5 Z"/></g>
<g><path style="opacity:0.149" fill="#838284" d="M 490.5,242.5 C 478.322,242.828 466.322,242.495 454.5,241.5C 465.993,240.341 477.659,240.174 489.5,241C 490.056,241.383 490.389,241.883 490.5,242.5 Z"/></g>
<g><path style="opacity:1" fill="#c42a1d" d="M 158.5,243.5 C 159.117,243.611 159.617,243.944 160,244.5C 161.101,249.137 162.601,253.637 164.5,258C 164.167,258.5 163.833,259 163.5,259.5C 159.559,256.656 155.893,256.989 152.5,260.5C 150.492,256.806 149.492,252.806 149.5,248.5C 153.69,248.977 156.69,247.311 158.5,243.5 Z"/></g>
<g><path style="opacity:1" fill="#262629" d="M 340.5,229.5 C 342.344,230.204 342.844,231.537 342,233.5C 338.862,245.283 333.029,255.45 324.5,264C 323.552,264.483 322.552,264.649 321.5,264.5C 321.343,263.127 321.51,261.793 322,260.5C 326.667,253.833 331.333,247.167 336,240.5C 338.072,237.029 339.572,233.362 340.5,229.5 Z"/></g>
<g><path style="opacity:1" fill="#9e2a33" d="M 408.5,342.5 C 359.664,342.832 310.997,342.499 262.5,341.5C 261.16,332.813 264.826,329.647 273.5,332C 275.979,334.67 278.979,336.17 282.5,336.5C 281.916,331.501 281.749,326.501 282,321.5C 282.609,317.717 284.776,316.05 288.5,316.5C 288.238,315.022 288.571,313.689 289.5,312.5C 293.126,310.902 296.793,309.402 300.5,308C 303.167,305.333 305.833,302.667 308.5,300C 317.348,295.171 325.848,290.004 334,284.5C 340.964,288.288 346.63,286.955 351,280.5C 353.594,271.6 355.761,262.6 357.5,253.5C 358.493,261.984 358.826,270.651 358.5,279.5C 371.167,279.5 383.833,279.5 396.5,279.5C 397.494,269.347 397.828,259.014 397.5,248.5C 425.833,248.5 454.167,248.5 482.5,248.5C 482.5,279.833 482.5,311.167 482.5,342.5C 457.833,342.5 433.167,342.5 408.5,342.5 Z"/></g>
<g><path style="opacity:0.146" fill="#959495" d="M 377.5,236.5 C 378.167,236.5 378.833,236.5 379.5,236.5C 379.451,248.326 379.451,260.159 379.5,272C 383.091,272.789 386.591,272.622 390,271.5C 390.5,262.506 390.666,253.506 390.5,244.5C 391.493,252.65 391.826,260.983 391.5,269.5C 391.768,271.099 391.434,272.432 390.5,273.5C 386.167,273.5 381.833,273.5 377.5,273.5C 377.5,261.167 377.5,248.833 377.5,236.5 Z"/></g>
<g><path style="opacity:1" fill="#9aa0a8" d="M 351.5,195.5 C 353.624,196.031 355.124,197.365 356,199.5C 362.035,209.399 364.035,220.066 362,231.5C 355.639,246.586 351.306,262.253 349,278.5C 346.091,281.394 342.591,282.227 338.5,281C 337.643,280.311 336.977,279.478 336.5,278.5C 348.297,264.233 355.797,247.899 359,229.5C 359.405,223.807 359.072,218.141 358,212.5C 356.68,206.354 354.514,200.688 351.5,195.5 Z"/></g>
<g><path style="opacity:1" fill="#dad9d9" d="M 155.5,264.5 C 157.973,264.604 158.639,265.604 157.5,267.5C 149.404,269.323 148.738,268.323 155.5,264.5 Z"/></g>
<g><path style="opacity:0.406" fill="#242424" d="M 377.5,236.5 C 377.5,248.833 377.5,261.167 377.5,273.5C 381.833,273.5 386.167,273.5 390.5,273.5C 386.03,274.486 381.363,274.819 376.5,274.5C 376.171,261.656 376.505,248.989 377.5,236.5 Z"/></g>
<g><path style="opacity:1" fill="#290f12" d="M 359.5,250.5 C 359.5,259.833 359.5,269.167 359.5,278.5C 371.833,278.5 384.167,278.5 396.5,278.5C 396.5,278.833 396.5,279.167 396.5,279.5C 383.833,279.5 371.167,279.5 358.5,279.5C 358.826,270.651 358.493,261.984 357.5,253.5C 357.932,252.29 358.599,251.29 359.5,250.5 Z"/></g>
<g><path style="opacity:1" fill="#c62a1e" d="M 246.5,323.5 C 245.549,324.919 245.216,326.585 245.5,328.5C 244.167,328.5 242.833,328.5 241.5,328.5C 240.224,320.025 235.557,317.525 227.5,321C 226.009,323.097 225.009,325.43 224.5,328C 220.943,329.101 218.277,328.101 216.5,325C 218.574,319.716 216.908,316.049 211.5,314C 206.428,312.392 202.761,313.892 200.5,318.5C 196.668,319.587 193.668,318.421 191.5,315C 197.169,304.006 193.836,299.006 181.5,300C 179.446,303.7 176.946,304.2 174,301.5C 172.441,299.783 171.608,297.783 171.5,295.5C 176.346,294.491 178.18,291.491 177,286.5C 176.722,285.584 176.222,284.918 175.5,284.5C 171.702,279.621 167.368,279.287 162.5,283.5C 159.178,281.205 157.845,278.205 158.5,274.5C 160.115,273.846 161.782,273.346 163.5,273C 165.005,270.47 166.672,268.47 168.5,267C 184.762,301.48 212.095,318.814 250.5,319C 248.959,320.371 247.625,321.871 246.5,323.5 Z"/></g>
<g><path style="opacity:0.997" fill="#1d1a1a" d="M 175.5,284.5 C 176.222,284.918 176.722,285.584 177,286.5C 178.18,291.491 176.346,294.491 171.5,295.5C 171.608,297.783 172.441,299.783 174,301.5C 176.946,304.2 179.446,303.7 181.5,300C 193.836,299.006 197.169,304.006 191.5,315C 193.668,318.421 196.668,319.587 200.5,318.5C 202.761,313.892 206.428,312.392 211.5,314C 216.908,316.049 218.574,319.716 216.5,325C 218.277,328.101 220.943,329.101 224.5,328C 225.009,325.43 226.009,323.097 227.5,321C 235.557,317.525 240.224,320.025 241.5,328.5C 242.833,328.5 244.167,328.5 245.5,328.5C 245.216,326.585 245.549,324.919 246.5,323.5C 246.56,324.043 246.893,324.376 247.5,324.5C 249.487,322.499 251.82,321.665 254.5,322C 253.5,322.833 252.5,323.667 251.5,324.5C 252.602,325.176 253.602,325.842 254.5,326.5C 253.5,326.5 252.5,326.5 251.5,326.5C 251.592,330.684 253.259,334.017 256.5,336.5C 255.5,337.167 254.5,337.833 253.5,338.5C 252.684,336.856 251.35,335.69 249.5,335C 245.1,334.022 240.933,334.522 237,336.5C 236.495,338.518 235.995,340.518 235.5,342.5C 234.662,342.842 234.328,343.508 234.5,344.5C 234.189,345.478 233.522,346.145 232.5,346.5C 229.067,344.154 227.567,340.821 228,336.5C 227.586,336.043 227.086,335.709 226.5,335.5C 225.506,340.456 225.173,345.456 225.5,350.5C 225.144,344.923 224.144,339.59 222.5,334.5C 218.123,333.485 213.789,332.651 209.5,332C 208.009,335.828 205.675,338.994 202.5,341.5C 200.728,340.73 199.728,339.397 199.5,337.5C 200.472,334.536 200.638,331.536 200,328.5C 194.959,325.295 189.793,322.295 184.5,319.5C 181.538,321.318 178.538,323.151 175.5,325C 173.08,325.915 171.747,325.082 171.5,322.5C 172.693,319.281 174.026,316.114 175.5,313C 172.598,308.092 168.931,303.758 164.5,300C 160.366,299.883 156.366,300.716 152.5,302.5C 148.435,301.822 147.601,299.822 150,296.5C 151.815,294.595 153.815,292.928 156,291.5C 156.609,288.935 156.109,286.601 154.5,284.5C 155.5,284.5 156.5,284.5 157.5,284.5C 156.774,288.307 158.107,290.974 161.5,292.5C 163.927,292.477 166.26,291.977 168.5,291C 169.252,290.329 169.586,289.496 169.5,288.5C 170.222,288.918 170.722,289.584 171,290.5C 171.896,287.208 170.729,284.875 167.5,283.5C 170.228,282.06 172.395,282.726 174,285.5C 174.383,284.944 174.883,284.611 175.5,284.5 Z"/></g>
<g><path style="opacity:1" fill="#d8d8d8" d="M 169.5,288.5 C 169.586,289.496 169.252,290.329 168.5,291C 166.26,291.977 163.927,292.477 161.5,292.5C 162.716,290.549 164.382,289.049 166.5,288C 167.749,287.26 168.749,287.427 169.5,288.5 Z"/></g>
<g><path style="opacity:1" fill="#9ba1a9" d="M 238.5,284.5 C 239.978,284.238 241.311,284.571 242.5,285.5C 242.291,286.086 241.957,286.586 241.5,287C 238.167,288 234.833,289 231.5,290C 224.833,294 218.167,298 211.5,302C 207.207,303.202 203.707,302.035 201,298.5C 200.48,296.711 200.813,295.044 202,293.5C 208.336,286.16 216.002,284.493 225,288.5C 229.935,288.224 234.435,286.89 238.5,284.5 Z"/></g>
<g><path style="opacity:1" fill="#9a9fa7" d="M 275.5,297.5 C 277.167,297.5 278.833,297.5 280.5,297.5C 280.657,298.873 280.49,300.207 280,301.5C 275.833,305.667 271.667,309.833 267.5,314C 259.514,314.999 251.514,315.333 243.5,315C 242.273,313.413 242.606,312.079 244.5,311C 253.963,304.263 264.296,299.763 275.5,297.5 Z"/></g>
<g><path style="opacity:1" fill="#e7e6e6" d="M 183.5,306.5 C 184.675,306.281 185.675,306.614 186.5,307.5C 185.557,310.109 183.89,312.109 181.5,313.5C 180.633,310.857 181.3,308.523 183.5,306.5 Z"/></g>
<g><path style="opacity:1" fill="#be291d" d="M 261.5,317.5 C 262.833,317.5 264.167,317.5 265.5,317.5C 265.892,320.722 265.392,323.722 264,326.5C 262.167,323.333 259.667,320.833 256.5,319C 258.382,318.802 260.048,318.302 261.5,317.5 Z"/></g>
<g><path style="opacity:1" fill="#e1e0e0" d="M 206.5,319.5 C 207.5,319.5 208.5,319.5 209.5,319.5C 209.453,322.928 208.287,325.928 206,328.5C 205.264,325.408 205.431,322.408 206.5,319.5 Z"/></g>
<g><path style="opacity:1" fill="#e8e8e8" d="M 270.5,321.5 C 275.536,322.627 277.869,325.627 277.5,330.5C 273.963,328.313 271.63,325.313 270.5,321.5 Z"/></g>
<g><path style="opacity:1" fill="#e7e6e6" d="M 254.5,326.5 C 255.294,329.802 255.96,333.135 256.5,336.5C 253.259,334.017 251.592,330.684 251.5,326.5C 252.5,326.5 253.5,326.5 254.5,326.5 Z"/></g>
<g><path style="opacity:1" fill="#d5d5d5" d="M 231.5,326.5 C 232.5,326.5 233.5,326.5 234.5,326.5C 234.61,329.059 233.944,331.392 232.5,333.5C 230.636,331.288 230.303,328.955 231.5,326.5 Z"/></g>
<g><path style="opacity:0.004" fill="#fbfbfb" d="M 182.5,334.5 C 182.897,333.475 183.563,333.308 184.5,334C 183.906,334.464 183.239,334.631 182.5,334.5 Z"/></g>
<g><path style="opacity:1" fill="#9a2a33" d="M 253.5,338.5 C 254.752,340.001 255.752,341.668 256.5,343.5C 249.313,343.825 242.313,343.491 235.5,342.5C 235.995,340.518 236.495,338.518 237,336.5C 240.933,334.522 245.1,334.022 249.5,335C 251.35,335.69 252.684,336.856 253.5,338.5 Z"/></g>
<g><path style="opacity:0.006" fill="#f7f7f7" d="M 176.5,337.5 C 177.525,337.897 177.692,338.563 177,339.5C 176.536,338.906 176.369,338.239 176.5,337.5 Z"/></g>
<g><path style="opacity:1" fill="#7d2129" d="M 262.5,341.5 C 310.997,342.499 359.664,342.832 408.5,342.5C 408.5,342.833 408.5,343.167 408.5,343.5C 359.33,343.832 310.33,343.499 261.5,342.5C 261.5,341.833 261.833,341.5 262.5,341.5 Z"/></g>
<g><path style="opacity:1" fill="#661d24" d="M 408.5,343.5 C 408.5,343.167 408.5,342.833 408.5,342.5C 433.167,342.5 457.833,342.5 482.5,342.5C 482.5,311.167 482.5,279.833 482.5,248.5C 454.167,248.5 425.833,248.5 397.5,248.5C 397.828,259.014 397.494,269.347 396.5,279.5C 396.5,279.167 396.5,278.833 396.5,278.5C 396.5,268.167 396.5,257.833 396.5,247.5C 425.5,247.5 454.5,247.5 483.5,247.5C 483.5,279.5 483.5,311.5 483.5,343.5C 458.5,343.5 433.5,343.5 408.5,343.5 Z"/></g>
<g><path style="opacity:1" fill="#4a141a" d="M 235.5,342.5 C 242.313,343.491 249.313,343.825 256.5,343.5C 256.833,343.5 257.167,343.5 257.5,343.5C 250.018,344.492 242.352,344.825 234.5,344.5C 234.328,343.508 234.662,342.842 235.5,342.5 Z"/></g>
<g><path style="opacity:1" fill="#310d12" d="M 261.5,342.5 C 310.33,343.499 359.33,343.832 408.5,343.5C 359.167,344.833 309.833,344.833 260.5,343.5C 260.5,342.833 260.833,342.5 261.5,342.5 Z"/></g>
<g><path style="opacity:0.129" fill="#8f8e90" d="M 222.5,334.5 C 224.144,339.59 225.144,344.923 225.5,350.5C 226.167,351.5 226.833,352.5 227.5,353.5C 225.629,353.141 224.129,352.141 223,350.5C 222.501,345.177 222.334,339.844 222.5,334.5 Z"/></g>
<g><path style="opacity:0.008" fill="#787778" d="M 229.5,355.5 C 232.115,356.45 234.115,358.117 235.5,360.5C 232.893,359.684 230.893,358.017 229.5,355.5 Z"/></g>
</svg>
